<?xml version="1.0" encoding="UTF-8" standalone="no"?>
<svg
   xmlns:dc="http://purl.org/dc/elements/1.1/"
   xmlns:cc="http://creativecommons.org/ns#"
   xmlns:rdf="http://www.w3.org/1999/02/22-rdf-syntax-ns#"
   xmlns:svg="http://www.w3.org/2000/svg"
   xmlns="http://www.w3.org/2000/svg"
   id="svg8"
   version="1.1"
   viewBox="0 0 139.24379 139.26968"
   height="139.26968mm"
   width="139.24379mm">
  <defs
     id="defs2" />
  <metadata
     id="metadata5">
    <rdf:RDF>
      <cc:Work
         rdf:about="">
        <dc:format>image/svg+xml</dc:format>
        <dc:type
           rdf:resource="http://purl.org/dc/dcmitype/StillImage" />
        <dc:title></dc:title>
      </cc:Work>
    </rdf:RDF>
  </metadata>
  <g
     transform="translate(-37.914427,-78.87823)"
     id="layer1">
    <path
       id="path3733"
       d="M 102.91307,218.10094 C 81.013478,216.46893 61.480454,205.0496 49.341984,186.78238 47.043789,183.32382 43.601845,176.53091 42.18835,172.6642 33.765162,149.62199 37.963172,123.97154 53.27392,104.92974 59.643499,97.007979 67.589973,90.665099 76.851612,86.110029 c 8.615398,-4.23723 16.488443,-6.35494 26.268558,-7.06579 16.9006,-1.22839 34.60374,4.40735 48.20309,15.3453 5.27239,4.24058 10.46846,9.979611 14.42131,15.928271 2.2982,3.45855 5.74014,10.25146 7.15364,14.11817 5.68001,15.53809 5.68001,32.69014 0,48.22822 -1.4135,3.86671 -4.85544,10.65962 -7.15364,14.11818 -7.01489,10.55674 -16.2068,18.646 -27.50963,24.20963 -9.4696,4.66126 -18.59638,6.89281 -29.10416,7.11615 -2.61937,0.0557 -5.41734,0.0524 -6.21771,-0.007 z m 11.05678,-8.84122 c 18.29913,-1.97164 34.34241,-11.73121 44.54844,-27.10004 4.70721,-7.08838 7.834,-15.10275 9.39655,-24.08459 0.66908,-3.84595 0.67278,-15.01163 0.006,-18.96447 -1.50414,-8.92085 -4.65533,-17.02103 -9.40285,-24.17011 -10.25406,-15.441151 -26.19883,-25.112961 -44.71778,-27.125021 -3.27772,-0.35611 -13.67123,-0.22528 -14.060346,0.177 -0.278069,0.28748 -29.90001,51.884471 -29.90001,52.081351 0,0.078 8.334374,0.14188 18.520832,0.14188 10.186457,0 18.520164,0.0893 18.519344,0.19844 -7.9e-4,0.10914 -2.19435,3.9489 -4.87452,8.53281 l -4.873043,8.33437 -23.456126,0.0676 -23.456129,0.0676 0.788029,-1.39049 c 0.433415,-0.76478 2.869941,-5.14097 5.414502,-9.72487 2.544561,-4.58391 10.712762,-18.93069 18.151557,-31.88175 7.438794,-12.95105 13.425187,-23.580661 13.303095,-23.621361 -0.387509,-0.12917 -6.165881,2.29799 -8.777125,3.68676 -18.167091,9.662011 -30.194596,27.465791 -32.302622,47.816121 -0.393303,3.79685 -0.170655,12.48885 0.407448,15.90647 3.955587,23.38459 20.269195,41.98815 42.819903,48.83058 3.244567,0.98448 7.388958,1.84276 7.908599,1.63782 0.191929,-0.0757 6.918762,-11.64064 14.948502,-25.69988 l 14.59954,-25.56226 h -9.93149 c -9.07017,0 -9.91715,-0.0374 -9.76605,-0.43115 0.091,-0.23713 2.31705,-4.10667 4.94679,-8.59896 l 4.78134,-8.16781 h 23.53538 23.53538 l -0.73683,1.25677 c -0.40526,0.69122 -2.65169,4.53099 -4.99207,8.53281 l -4.25523,7.27604 -8.6104,0.0697 -8.61041,0.0697 -14.76018,25.85945 c -8.11811,14.22269 -14.80826,25.94874 -14.86701,26.05788 -0.15419,0.28644 3.22839,0.2438 6.21869,-0.0784 z"
       style="fill:#000000;stroke-width:0.26458332" />
  </g>
</svg>
